<svg xmlns="http://www.w3.org/2000/svg" width="180" height="180" viewBox="0 0 180 180" role="img" aria-labelledby="title desc">
  <title id="title">Gestion Mantix</title>
  <desc id="desc">Logo corporativo dark tech con monograma GM para sistema de mantenimiento e inventario.</desc>
  <defs>
    <linearGradient id="frame" x1="34" y1="20" x2="146" y2="160" gradientUnits="userSpaceOnUse">
      <stop stop-color="#3B82F6"/>
      <stop offset=".48" stop-color="#2563EB"/>
      <stop offset="1" stop-color="#10B981"/>
    </linearGradient>
    <linearGradient id="panel" x1="24" y1="20" x2="156" y2="160" gradientUnits="userSpaceOnUse">
      <stop stop-color="#1E293B"/>
      <stop offset=".62" stop-color="#0F172A"/>
      <stop offset="1" stop-color="#020617"/>
    </linearGradient>
    <radialGradient id="halo" cx="50%" cy="44%" r="58%">
      <stop stop-color="#2563EB" stop-opacity=".34"/>
      <stop offset=".72" stop-color="#2563EB" stop-opacity=".08"/>
      <stop offset="1" stop-color="#2563EB" stop-opacity="0"/>
    </radialGradient>
    <filter id="softGlow" x="-35%" y="-35%" width="170%" height="170%">
      <feGaussianBlur stdDeviation="5" result="blur"/>
      <feColorMatrix in="blur" type="matrix" values="0 0 0 0 0 0 0 0 0 .66 0 0 0 0 1 0 0 0 .72 0"/>
      <feMerge>
        <feMergeNode/>
        <feMergeNode in="SourceGraphic"/>
      </feMerge>
    </filter>
  </defs>

  <rect width="180" height="180" rx="40" fill="#0F172A"/>
  <rect x="13" y="13" width="154" height="154" rx="34" fill="url(#halo)"/>
  <path d="M90 18 151 54v72l-61 36-61-36V54L90 18Z" fill="url(#panel)" stroke="url(#frame)" stroke-width="4" filter="url(#softGlow)"/>
  <path d="M90 35 134 61v52l-44 26-44-26V61l44-26Z" fill="none" stroke="#334155" stroke-width="2"/>

  <path d="M72 61H57c-12 0-22 10-22 23v13c0 13 10 23 22 23h18c11 0 20-8 22-18H72" fill="none" stroke="url(#frame)" stroke-width="10" stroke-linecap="round" stroke-linejoin="round"/>
  <path d="M72 92h31" stroke="url(#frame)" stroke-width="10" stroke-linecap="round" filter="url(#softGlow)"/>
  <path d="M82 120V61h13l18 28 18-28h13v59" fill="none" stroke="#F8FAFC" stroke-width="10" stroke-linecap="round" stroke-linejoin="round"/>

  <circle cx="45" cy="55" r="4" fill="#3B82F6"/>
  <circle cx="135" cy="55" r="4" fill="#2563EB"/>
  <circle cx="45" cy="125" r="4" fill="#2563EB"/>
  <circle cx="135" cy="125" r="4" fill="#10B981"/>
  <path d="M45 55H28M135 55h17M45 125H28M135 125h17" stroke="url(#frame)" stroke-width="3" stroke-linecap="round"/>
</svg>
